<?xml version="1.0" encoding="UTF-8" standalone="no"?>
<!-- Created with Inkscape (http://www.inkscape.org/) -->

<svg
   xmlns:dc="http://purl.org/dc/elements/1.1/"
   xmlns:cc="http://creativecommons.org/ns#"
   xmlns:rdf="http://www.w3.org/1999/02/22-rdf-syntax-ns#"
   xmlns:svg="http://www.w3.org/2000/svg"
   xmlns="http://www.w3.org/2000/svg"
   xmlns:inkscape="http://www.inkscape.org/namespaces/inkscape"
   version="1.1"
   width="800"
   height="800"
   id="svg2">
  <defs
     id="defs4">
    <inkscape:path-effect
       effect="spiro"
       id="path-effect3003" />
  </defs>
  <metadata
     id="metadata7">
    <rdf:RDF>
      <cc:Work
         rdf:about="">
        <dc:format>image/svg+xml</dc:format>
        <dc:type
           rdf:resource="http://purl.org/dc/dcmitype/StillImage" />
        <dc:title></dc:title>
      </cc:Work>
    </rdf:RDF>
  </metadata>
  <g
     transform="translate(0,-252.36218)"
     id="layer1"
     style="display:inline">
    <path
       d="M 145.53125,4.9375 C 68.556876,4.9375 6.59375,66.90063 6.59375,143.875 l 0,187.4375 C 129.07677,478.75502 209.19947,557.35997 330.25,625 c 7.1886,-1.07205 14.30051,-2.34167 21.34375,-3.78125 149.15657,-27.94663 335.4188,-9.06797 447.6875,57.34375 0.80876,-6.08915 1.25,-12.30768 1.25,-18.625 l 0,-127.6875 -209.5625,0 0,-247.71875 c -8.19429,0.80984 -17.33022,1.1891 -27.40625,1.09375 l -43.4375,-0.40625 c 6.63846,10.63753 11.43004,22.78353 14.34375,36.46875 l -57.0625,10.9375 c -4.01279,-14.30242 -11.58734,-25.57026 -22.71875,-33.78125 -11.00237,-8.34297 -24.80718,-12.49976 -41.375,-12.5 -25.111,2.4e-4 -45.08356,8.11738 -59.96875,24.40625 -14.75596,16.28933 -22.15633,40.48292 -22.15625,72.53125 -8e-5,34.56483 7.51642,60.49527 22.53125,77.84375 15.01464,17.2162 34.69687,25.8438 59.03125,25.84375 12.03751,5e-5 24.05588,-2.38865 36.09375,-7.15625 12.16691,-4.89991 22.60872,-10.80097 31.28125,-17.6875 l 0,-36.9375 -65.84375,0 0,-49.0625 123.875,0 0,116 c -12.03796,11.91889 -29.49608,22.45597 -52.40625,31.59375 -22.7812,9.00536 -45.88451,13.5 -69.3125,13.5 -29.77075,0 -55.7413,-6.34904 -77.875,-19.0625 -22.13386,-12.84586 -38.74343,-31.1384 -49.875,-54.84375 -11.13165,-23.83764 -16.71877,-49.71301 -16.71875,-77.65625 -2e-5,-30.32671 6.23023,-57.27068 18.65625,-80.84375 4.12307,-7.82167 8.88984,-15.04472 14.28125,-21.65625 l -120.8125,-1.125 2.5,-277.09375 -41.0625,0 z m 255.5,0 -0.375,40.9375 -156.03125,-1.46875 -0.5625,63.5625 145.15625,1.375 -0.4375,48.28125 -145.15625,-1.375 -0.71875,78.03125 161.53125,1.53125 0,0.46875 c 2.91119,-0.11948 5.85345,-0.21872 8.875,-0.21875 15.00231,1.3e-4 28.60816,1.37999 40.8125,4.125 l 2.125,-235.25 -55.21875,0 z m 216.9375,0 c 16.91658,5.114399 31.39246,14.053531 43.375,26.8125 11.98207,12.759468 21.04212,28.341223 27.1875,46.78125 6.14604,18.310089 9.08622,40.89634 8.84375,67.75 -0.21357,23.59499 -3.36657,43.88538 -9.4375,60.90625 -4.56654,12.79346 -10.2815,24.07702 -17.15625,33.84375 l 129.75,0 0,-97.15625 c 0,-76.97437 -61.96312,-138.9375 -138.9375,-138.9375 l -43.625,0 z M 514.25,46.96875 512.53125,236.84375 556.125,237.25 c 16.30399,0.15433 28.06416,-0.64962 35.3125,-2.40625 9.48795,-2.25682 17.36311,-6.17176 23.59375,-11.71875 6.36175,-5.54561 11.56477,-14.66837 15.625,-27.40625 4.061,-12.86805 6.20571,-30.40145 6.40625,-52.5625 0.20012,-22.16076 -1.63164,-39.19363 -5.46875,-51.09375 -3.83752,-11.899739 -9.2726,-21.190565 -16.3125,-27.90625 -7.04027,-6.715231 -16.01438,-11.300042 -26.90625,-13.75 -8.13573,-1.901918 -24.10761,-2.962058 -47.90625,-3.1875 l -26.21875,-0.25 z m 134.1875,243.34375 0,64.5625 142.90625,0 0,49.0625 -142.90625,0 0,79.25 152.09375,0 0,-192.875 -152.09375,0 z M 6.59375,452.21875 l 0,129.75 c 37.955761,17.57301 77.974318,31.76505 120.09375,40.65625 42.772,4.69339 87.77665,8.3917 132.0625,7.78125 C 166.84254,582.20616 81.335372,521.09468 6.59375,452.21875 z m 592.875,187.96875 c -64.53318,-0.0227 -127.67645,12.06535 -187.03125,26.40625 47.96991,22.17792 102.60983,44.47979 167.15625,69.15625 -73.05399,-9.81958 -145.28456,-29.42565 -215,-56.84375 -110.04468,31.13326 -256.50974,25.88756 -357.5,-7.15625 5.958168,71.40242 65.443734,127.125 138.4375,127.125 l 516.0625,0 c 66.92961,0 122.50879,-46.85963 135.875,-109.6875 -8.30029,-4.00583 -20.40569,-9.24661 -49.78125,-22.84375 -18.12915,-5.54313 -35.68166,-12.32228 -54.375,-16.625 -31.41171,-6.70797 -62.79296,-9.52034 -93.84375,-9.53125 z"
       transform="translate(0,252.36218)"
       id="rect3021"
       style="fill:#4b9d4c;fill-opacity:1;fill-rule:nonzero" />
    <g
       transform="matrix(0.7808904,-0.74199061,0.74199061,0.7808904,-587.56254,795.65374)"
       id="g3859" />
    <g
       transform="matrix(1.136091,0,0,1.1623733,-192.85566,-10.012409)"
       id="g3894">
      <g
         transform="matrix(1.0158189,0.00939515,-0.00910403,0.98434324,0,0)"
         id="text3853"
         style="font-size:298.04769897px;font-style:normal;font-weight:normal;line-height:125%;letter-spacing:0px;word-spacing:0px;fill:#ffffff;fill-opacity:1;stroke:none;font-family:Sans" />
      <g
         id="text3890"
         style="font-size:40px;font-style:normal;font-weight:normal;line-height:125%;letter-spacing:0px;word-spacing:0px;fill:#ffffff;fill-opacity:1;stroke:none;font-family:Sans" />
    </g>
  </g>
</svg>
